<svg width="11" height="11" viewBox="0 0 11 11" fill="none" xmlns="http://www.w3.org/2000/svg">
<path fill-rule="evenodd" clip-rule="evenodd" d="M5.20801 0C7.96943 0 10.208 2.19215 10.208 4.8963C10.208 6.68572 8.6956 8.57769 5.73482 10.6387L5.20801 11L4.89012 10.7828C1.79157 8.66574 0.208008 6.72734 0.208008 4.8963C0.208008 2.19215 2.44658 0 5.20801 0ZM5.20798 1.08804C3.06021 1.08804 1.31909 2.79304 1.31909 4.89627C1.31909 6.21764 2.59505 7.83002 5.20798 9.66998C7.82091 7.83002 9.09687 6.21764 9.09687 4.89627C9.09687 2.79304 7.35575 1.08804 5.20798 1.08804ZM5.20806 2.20001C6.43536 2.20001 7.43028 3.18498 7.43028 4.40001C7.43028 5.61503 6.43536 6.60001 5.20806 6.60001C3.98076 6.60001 2.98584 5.61503 2.98584 4.40001C2.98584 3.18498 3.98076 2.20001 5.20806 2.20001ZM5.20804 3.30001C4.59439 3.30001 4.09692 3.7925 4.09692 4.40001C4.09692 5.00752 4.59439 5.50001 5.20804 5.50001C5.82169 5.50001 6.31915 5.00752 6.31915 4.40001C6.31915 3.7925 5.82169 3.30001 5.20804 3.30001Z" fill="white"/>
</svg>
