<svg width="13" height="13" viewBox="0 0 13 13" fill="none" xmlns="http://www.w3.org/2000/svg">
<path d="M8.43037 7.17694C8.16081 7.0174 7.68983 6.62724 7.251 7.04485C7.14743 7.15025 7.07887 7.22083 7.03456 7.26615C6.63592 7.07732 5.9271 6.39293 5.74331 5.96106C6.39456 5.36906 6.09311 5.15791 5.4526 3.94144C5.34317 3.75262 5.16575 3.62732 4.94923 3.62732C4.68403 3.62732 4.58039 3.75799 4.20156 4.14135C3.72722 4.62122 3.44885 4.77195 3.62727 5.58508C4.13501 7.89969 7.52341 10.2178 8.48299 9.18153C9.26675 8.40306 9.4179 8.32929 9.37199 7.97723C9.31417 7.62669 9.04519 7.54075 8.43037 7.17694ZM8.01067 8.74295C7.95587 8.8038 7.62773 8.82385 7.0834 8.59793C6.05123 8.16959 4.98053 7.04552 4.54178 6.20637C4.40205 5.93907 4.09304 5.1465 4.26458 4.99191C4.33474 4.92536 4.80648 4.44364 4.92716 4.3269C5.24842 4.93585 5.40485 5.22052 5.4568 5.3365C5.3644 5.47917 5.0689 5.59087 5.0689 5.94083C5.1989 6.62456 6.08841 7.46245 6.62006 7.77422C7.16271 8.09246 7.33635 7.87972 7.53399 7.67712C7.71048 7.49635 7.69537 7.50735 7.71375 7.5055L8.68449 8.07601C8.57069 8.19502 8.08922 8.66037 8.01067 8.74295Z" fill="white" stroke="white" stroke-width="0.2"/>
<path d="M6.5 1C3.45988 1 1 3.4603 1 6.5C1 9.54012 3.4603 12 6.5 12C9.54012 12 12 9.5397 12 6.5C12 3.45988 9.5397 1 6.5 1ZM6.5 11.3555C3.81613 11.3555 1.64453 9.18345 1.64453 6.5C1.64453 3.81613 3.81655 1.64453 6.5 1.64453C9.18387 1.64453 11.3555 3.81655 11.3555 6.5C11.3555 9.18387 9.18345 11.3555 6.5 11.3555Z" fill="white" stroke="white" stroke-width="0.2"/>
</svg>
