<svg width="18" height="18" viewBox="0 0 18 18" fill="none" xmlns="http://www.w3.org/2000/svg">
<path fill-rule="evenodd" clip-rule="evenodd" d="M8.99999 0.666992C13.6024 0.666992 17.3333 4.39795 17.3333 9.00033C17.3333 13.6027 13.6024 17.3337 8.99999 17.3337C4.39762 17.3337 0.666656 13.6027 0.666656 9.00033C0.666656 4.39795 4.39762 0.666992 8.99999 0.666992ZM11.477 9.83428H6.52295C6.6154 11.5039 6.9826 13.0239 7.54442 14.1475C8.06767 15.194 8.62679 15.667 8.99999 15.667C9.37319 15.667 9.93231 15.194 10.4556 14.1475C11.0174 13.0239 11.3846 11.5039 11.477 9.83428ZM15.615 9.83448L13.146 9.83471C13.0452 11.863 12.5808 13.6772 11.885 15.013C13.8834 14.0517 15.3293 12.1232 15.615 9.83448ZM4.85395 9.83471L2.385 9.83448C2.6707 12.1232 4.11659 14.0516 6.11553 15.0124C5.46278 13.7606 5.01374 12.0879 4.87708 10.2124L4.85395 9.83471ZM6.11502 2.98764L6.09323 2.99905C4.10565 3.96353 2.66935 5.88633 2.38492 8.16686L4.85391 8.16679C4.95464 6.1382 5.41911 4.32362 6.11502 2.98764ZM8.99999 2.33366L8.93225 2.33859C8.56114 2.39129 8.03689 2.8682 7.54442 3.85313C6.98251 4.97695 6.61528 6.49727 6.52291 8.16717H11.4771C11.3847 6.49727 11.0175 4.97695 10.4556 3.85313C9.93232 2.80664 9.37319 2.33366 8.99999 2.33366ZM11.8845 2.98825L11.9033 3.02301C12.5891 4.35569 13.0463 6.15637 13.1461 8.16734L15.6151 8.16699C15.3296 5.87787 13.8836 3.94916 11.8845 2.98825Z" fill="#2F6DCE"/>
</svg>
