<svg width="18" height="18" viewBox="0 0 18 18" fill="none" xmlns="http://www.w3.org/2000/svg">
<path fill-rule="evenodd" clip-rule="evenodd" d="M4.83335 17.3332C3.45263 17.3332 2.33335 16.2139 2.33335 14.8332V9.83317H1.50001C0.757592 9.83317 0.385786 8.93555 0.910757 8.41058L8.41076 0.910582C8.73619 0.585145 9.26383 0.585145 9.58927 0.910582L17.0893 8.41058C17.6142 8.93555 17.2424 9.83317 16.5 9.83317H15.6667V14.8332C15.6667 16.2139 14.5474 17.3332 13.1667 17.3332H4.83335ZM9.00001 2.67837L3.4591 8.21928C3.77509 8.33771 4.00001 8.64252 4.00001 8.99986V14.8332C4.00001 15.2934 4.37311 15.6665 4.83334 15.6665L6.50001 15.6657L6.50001 12.3332C6.50001 11.4127 7.2462 10.6665 8.16668 10.6665H9.83335C10.7538 10.6665 11.5 11.4127 11.5 12.3332L11.5 15.6657L13.1667 15.6665C13.6269 15.6665 14 15.2934 14 14.8332V8.99986C14 8.64252 14.2249 8.33771 14.5409 8.21928L9.00001 2.67837ZM9.83335 12.3332H8.16668L8.16668 15.6657H9.83334L9.83335 12.3332Z" fill="#2F6DCE"/>
</svg>
