<svg width="34" height="34" viewBox="0 0 34 34" fill="none" xmlns="http://www.w3.org/2000/svg">
<rect x="0.5" y="0.5" width="33" height="33" rx="5.5" stroke="#2F6DCE"/>
<path d="M14.0007 17C14.0007 15.3432 15.3435 13.9998 17.0004 13.9998C18.6572 13.9998 20.0007 15.3432 20.0007 17C20.0007 18.6568 18.6572 20.0002 17.0004 20.0002C15.3435 20.0002 14.0007 18.6568 14.0007 17ZM12.3788 17C12.3788 19.5524 14.4479 21.6214 17.0004 21.6214C19.5529 21.6214 21.6219 19.5524 21.6219 17C21.6219 14.4476 19.5529 12.3786 17.0004 12.3786C14.4479 12.3786 12.3788 14.4476 12.3788 17ZM20.7249 12.1954C20.7248 12.409 20.788 12.6178 20.9066 12.7955C21.0252 12.9731 21.1939 13.1116 21.3912 13.1934C21.5885 13.2752 21.8057 13.2967 22.0152 13.2551C22.2247 13.2135 22.4172 13.1108 22.5683 12.9598C22.7194 12.8088 22.8223 12.6164 22.8641 12.4069C22.9059 12.1974 22.8846 11.9803 22.8029 11.7829C22.7212 11.5855 22.5829 11.4168 22.4053 11.2981C22.2277 11.1793 22.0189 11.1159 21.8053 11.1158H21.8049C21.5186 11.1159 21.244 11.2297 21.0415 11.4321C20.839 11.6345 20.7251 11.909 20.7249 12.1954ZM13.3642 24.3258C12.4867 24.2858 12.0098 24.1397 11.6928 24.0162C11.2726 23.8526 10.9728 23.6578 10.6576 23.343C10.3423 23.0282 10.1472 22.7287 9.98433 22.3085C9.86077 21.9917 9.7146 21.5146 9.67472 20.6372C9.63108 19.6885 9.62237 19.4035 9.62237 17.0001C9.62237 14.5966 9.6318 14.3125 9.67472 13.363C9.71468 12.4855 9.86192 12.0094 9.98433 11.6917C10.1479 11.2715 10.3428 10.9717 10.6576 10.6564C10.9724 10.3412 11.2719 10.1461 11.6928 9.98324C12.0096 9.85969 12.4867 9.71353 13.3642 9.67364C14.3129 9.63001 14.5979 9.6213 17.0004 9.6213C19.4028 9.6213 19.6881 9.63073 20.6376 9.67364C21.5151 9.7136 21.9912 9.86084 22.309 9.98324C22.7292 10.1461 23.029 10.3417 23.3442 10.6564C23.6595 10.9712 23.8539 11.2715 24.0175 11.6917C24.141 12.0085 24.2872 12.4855 24.3271 13.363C24.3707 14.3125 24.3794 14.5966 24.3794 17.0001C24.3794 19.4035 24.3707 19.6877 24.3271 20.6372C24.2871 21.5146 24.1402 21.9915 24.0175 22.3085C23.8539 22.7287 23.659 23.0285 23.3442 23.343C23.0294 23.6575 22.7292 23.8526 22.309 24.0162C21.9922 24.1397 21.5151 24.2859 20.6376 24.3258C19.6889 24.3694 19.4039 24.3781 17.0004 24.3781C14.5968 24.3781 14.3126 24.3694 13.3642 24.3258ZM13.2897 8.0545C12.3315 8.09814 11.6768 8.25006 11.1051 8.47254C10.5129 8.70229 10.0116 9.01052 9.51069 9.51063C9.00977 10.0107 8.70232 10.5128 8.47255 11.1049C8.25007 11.677 8.09814 12.3314 8.05451 13.2895C8.01015 14.2491 8 14.5559 8 17C8 19.4441 8.01015 19.7509 8.05451 20.7105C8.09814 21.6687 8.25007 22.323 8.47255 22.8951C8.70232 23.4868 9.00984 23.9895 9.51069 24.4894C10.0115 24.9893 10.5129 25.2971 11.1051 25.5275C11.6779 25.7499 12.3315 25.9019 13.2897 25.9455C14.2499 25.9891 14.5562 26 17.0004 26C19.4446 26 19.7514 25.9898 20.711 25.9455C21.6692 25.9019 22.3235 25.7499 22.8957 25.5275C23.4875 25.2971 23.9891 24.9895 24.49 24.4894C24.991 23.9893 25.2978 23.4868 25.5282 22.8951C25.7507 22.323 25.9033 21.6686 25.9462 20.7105C25.9898 19.7502 26 19.4441 26 17C26 14.5559 25.9898 14.2491 25.9462 13.2895C25.9026 12.3313 25.7507 11.6767 25.5282 11.1049C25.2978 10.5132 24.9902 10.0115 24.49 9.51063C23.9899 9.00973 23.4875 8.70229 22.8964 8.47254C22.3235 8.25006 21.6692 8.09742 20.7117 8.0545C19.7521 8.01087 19.4453 8 17.0011 8C14.5569 8 14.2499 8.01015 13.2897 8.0545Z" fill="#2F6DCE"/>
</svg>
