<svg width="18" height="14" viewBox="0 0 18 14" fill="none" xmlns="http://www.w3.org/2000/svg">
<path fill-rule="evenodd" clip-rule="evenodd" d="M14.8333 0.333496C16.214 0.333496 17.3333 1.45278 17.3333 2.8335V11.1668C17.3333 12.5475 16.214 13.6668 14.8333 13.6668H3.16666C1.78594 13.6668 0.666656 12.5475 0.666656 11.1668V2.8335C0.666656 1.45278 1.78594 0.333496 3.16666 0.333496H14.8333ZM15.6667 3.10681L9.54874 8.46062C9.26074 8.71263 8.84253 8.73363 8.53283 8.52362L8.45123 8.46062L2.33332 3.10764V11.1668C2.33332 11.627 2.70642 12.0001 3.16666 12.0001H14.8333C15.2936 12.0001 15.6667 11.627 15.6667 11.1668V3.10681ZM14.4 2.00015H3.59832L8.99999 6.72617L14.4 2.00015Z" fill="#2F6DCE"/>
</svg>
