<svg width="14" height="15" viewBox="0 0 14 15" fill="none" xmlns="http://www.w3.org/2000/svg">
<path d="M11.7118 8.55838C11.0618 8.17373 9.92626 7.23302 8.8682 8.23989C8.61851 8.49404 8.45319 8.66421 8.34635 8.77348C7.38521 8.3182 5.67621 6.66808 5.23307 5.62681C6.80327 4.19947 6.07645 3.69037 4.53215 0.757377C4.26829 0.302101 3.84054 0 3.31849 0C2.67908 0 2.42918 0.315051 1.51579 1.23936C0.37214 2.39637 -0.299038 2.75978 0.131147 4.7203C1.35533 10.301 9.52501 15.8902 11.8386 13.3916C13.7283 11.5146 14.0927 11.3368 13.9821 10.4879C13.8426 9.64275 13.1941 9.43555 11.7118 8.55838ZM10.6998 12.3341C10.5677 12.4808 9.77653 12.5292 8.46412 11.9845C5.97548 10.9517 3.39396 8.24151 2.3361 6.21826C1.9992 5.5738 1.25416 3.66285 1.66775 3.29013C1.83692 3.12967 2.9743 1.96821 3.26527 1.68675C4.03984 3.15496 4.41702 3.84132 4.54227 4.12096C4.31949 4.46494 3.60703 4.73427 3.60703 5.57804C3.92046 7.22655 6.06512 9.24676 7.34697 9.99847C8.65533 10.7658 9.07399 10.2528 9.55051 9.76436C9.97604 9.32851 9.93962 9.35502 9.98393 9.35056L12.3245 10.7261C12.0501 11.013 10.8892 12.135 10.6998 12.3341Z" fill="#2F6DCE"/>
</svg>
