<svg width="34" height="34" viewBox="0 0 34 34" fill="none" xmlns="http://www.w3.org/2000/svg">
<rect x="0.5" y="0.5" width="33" height="33" rx="5.5" stroke="#2F6DCE"/>
<path fill-rule="evenodd" clip-rule="evenodd" d="M27.4952 11.8802C27.6482 11.3729 27.4952 11 26.7673 11H24.3605C23.7485 11 23.4666 11.3221 23.3136 11.6774C23.3136 11.6774 22.0895 14.6456 20.3556 16.5738C19.7946 17.1319 19.5397 17.3093 19.2337 17.3093C19.0807 17.3093 18.8593 17.1319 18.8593 16.6246V11.8802C18.8593 11.2713 18.6817 11 18.1716 11H14.3895C14.0071 11 13.7771 11.2826 13.7771 11.5504C13.7771 12.1278 14.6439 12.2608 14.7333 13.8845V17.4111C14.7333 18.1842 14.593 18.3245 14.287 18.3245C13.4711 18.3245 11.4865 15.3427 10.3092 11.931C10.0785 11.2679 9.84712 11 9.232 11H6.82519C6.13753 11 6 11.3221 6 11.6774C6 12.3116 6.81608 15.4576 9.79932 19.6183C11.7884 22.4595 14.5903 24 17.1401 24C18.6701 24 18.8593 23.6579 18.8593 23.0686V20.9211C18.8593 20.2368 19.0042 20.1003 19.4885 20.1003C19.8457 20.1003 20.4575 20.2779 21.8856 21.6479C23.5175 23.2713 23.7863 24 24.7044 24H27.1112C27.7988 24 28.1427 23.6579 27.9443 22.9827C27.7273 22.3098 26.9482 21.3338 25.9143 20.1765C25.3533 19.5167 24.5118 18.8063 24.257 18.4512C23.9 17.9945 24.0019 17.7916 24.257 17.3859C24.257 17.3859 27.1892 13.2759 27.4952 11.8804V11.8802Z" fill="#2F6DCE"/>
</svg>
