<svg width="20" height="16" viewBox="0 0 20 16" fill="none" xmlns="http://www.w3.org/2000/svg">
<path fill-rule="evenodd" clip-rule="evenodd" d="M8.7903 0.387101L8.70711 0.292893C8.34662 -0.0675907 7.77939 -0.0953203 7.3871 0.209705L7.29289 0.292893L0.292893 7.29289L0.251496 7.33685L0.196335 7.40469L0.124671 7.51594L0.0712255 7.62866L0.0358451 7.73401L0.00690716 7.8819L0 8L0.00278786 8.07524L0.0202401 8.20073L0.0497381 8.31214L0.0936734 8.42322L0.145995 8.52071L0.219689 8.62545L0.292893 8.70711L7.29289 15.7071C7.68342 16.0976 8.31658 16.0976 8.70711 15.7071C9.06759 15.3466 9.09532 14.7794 8.7903 14.3871L8.70711 14.2929L3.416 9H19C19.5523 9 20 8.55229 20 8C20 7.44772 19.5523 7 19 7H3.414L8.70711 1.70711C9.06759 1.34662 9.09532 0.779392 8.7903 0.387101L8.70711 0.292893L8.7903 0.387101Z" fill="white"/>
</svg>
