<svg width="22" height="22" viewBox="0 0 22 22" fill="none" xmlns="http://www.w3.org/2000/svg">
<rect x="2" y="2" width="18" height="18" rx="5" fill="white"/>
<path fill-rule="evenodd" clip-rule="evenodd" d="M13.2222 11.0003L21.5397 2.6828C22.1541 2.06838 22.1541 1.07524 21.5397 0.460818C20.9253 -0.153606 19.9321 -0.153606 19.3177 0.460818L11.0003 8.77834L2.68279 0.460818C2.06837 -0.153606 1.07524 -0.153606 0.460815 0.460818C-0.153605 1.07524 -0.153605 2.06838 0.460815 2.6828L8.77828 11.0003L0.460815 19.3178C-0.153605 19.9323 -0.153605 20.9254 0.460815 21.5398C0.76724 21.8463 1.16952 22.0003 1.5718 22.0003C1.97408 22.0003 2.37636 21.8463 2.68279 21.5398L11.0003 13.2223L19.3177 21.5398C19.6241 21.8463 20.0264 22.0003 20.4287 22.0003C20.831 22.0003 21.2333 21.8463 21.5397 21.5398C22.1541 20.9254 22.1541 19.9323 21.5397 19.3178L13.2222 11.0003Z" fill="#E05C5C"/>
</svg>
