<svg width="24" height="28" viewBox="0 0 24 28" fill="none" xmlns="http://www.w3.org/2000/svg">
<path d="M4.86026 9.23005C4.96768 10.5151 5.21436 12.2754 5.77253 14.1236C6.95796 18.0487 9.05211 20.8396 12 22.4256C14.948 20.8396 17.0421 18.0487 18.2275 14.1236C18.7857 12.2755 19.0323 10.5152 19.1398 9.23005L12 5.66016L4.86026 9.23005Z" fill="#2F6DCE"/>
<path d="M23.9867 6.76412C23.9719 6.47785 23.8042 6.22166 23.5478 6.09349L12.356 0.497602C12.1319 0.385565 11.8681 0.385565 11.644 0.497602L0.452293 6.09349C0.195898 6.22166 0.0281882 6.47785 0.0133278 6.76412C0.00483612 6.92705 -0.17922 10.8066 1.14235 15.3107C1.92432 17.9757 3.07451 20.3033 4.56098 22.229C6.43418 24.6556 8.84178 26.4407 11.7169 27.5348C11.8081 27.5695 11.904 27.5868 12 27.5868C12.096 27.5868 12.1919 27.5695 12.2832 27.5348C15.1583 26.4407 17.5659 24.6556 19.4391 22.229C20.9256 20.3033 22.0757 17.9756 22.8577 15.3107C24.1793 10.8066 23.9952 6.92705 23.9867 6.76412ZM12.3529 24.0348C12.2417 24.0897 12.1208 24.1172 12 24.1172C11.8792 24.1172 11.7583 24.0897 11.6472 24.0348C8.10237 22.2821 5.61304 19.1023 4.24843 14.5838C3.56592 12.3238 3.3195 10.1942 3.23299 8.80567C3.21309 8.48681 3.38579 8.187 3.67153 8.04413L11.6441 4.05789C11.8682 3.9459 12.132 3.94585 12.3561 4.05789L20.3287 8.04413C20.6144 8.18695 20.7871 8.48686 20.7672 8.80573C20.6807 10.1943 20.4343 12.324 19.7517 14.5838C18.387 19.1022 15.8977 22.282 12.3529 24.0348Z" fill="#2F6DCE"/>
</svg>
